<svg 
id="LOGO" 
xmlns="http://www.w3.org/2000/svg"
viewBox="0 0 215.76 214.52">
 <defs><style>.cls-1{fill:#ff281b;}.cls-2{fill:#fff;}.cls-3{fill:none;}</style></defs><path class="cls-1" d="M206.71,85.25,139.56,13C127.58,1,110.47-2.95,99,4.38l-86.09,55C4.25,65,.35,74.22,2.4,84.42l19.66,98.11c3,14.83,13,30.67,32.36,30.67l122.62.64c11.27-1.33,17.65-11.09,20.05-22l17.67-87.27a27.6,27.6,0,0,0-8-19.28"/>
 <path class="cls-2" d="M149.39,145.49a8.22,8.22,0,0,0-11.26,2.89c-7.34,12.42-18.32,19.55-30.12,19.55s-22.78-7.13-30.13-19.55a8.22,8.22,0,1,0-14.15,8.37C74,174,90.51,184.37,108,184.37s34.05-10.33,44.28-27.62A8.22,8.22,0,0,0,149.39,145.49Z"/>
 <path class="cls-2" d="M179.38,105.42H163.26V78.22c0-2.71-2.06-5-5-6l-46.1-29.42c-.16-.1-.34-.16-.5-.25a9.06,9.06,0,0,0-.82-.42,27.83,27.83,0,0,0-1.51-.45,6.26,6.26,0,0,0-.87-.1c-.23,0-.47-.05-.71-.06s-.55,0-.83.06-.51,0-.76.1a7.86,7.86,0,0,0-.8.21c-.24.08-.48.14-.72.24s-.56.27-.84.42-.33.15-.49.25l-46.2,29.5c-3,1-5.07,3.34-5.07,6.08v27.09H37.25a8.23,8.23,0,0,0,0,16.45H84.13v7.33a8.29,8.29,0,1,0,16.58,0v-7.33H116.3v7.33a8.29,8.29,0,1,0,16.58,0v-7.33h46.5a8.23,8.23,0,0,0,0-16.45Zm-32.56,0H68.49V84.6h.43c7.35-4.66,23-10.36,34.39-26.76H112c11.42,16.4,27,22.1,34.39,26.76h.42Z"/>
 <rect class="cls-3" x="-65.02" y="-66.64" width="850.39" height="347.8"/>
</svg>

